                                                                        S      1
,,,17Hlargeinertiawheel,22HAutodesk Inventor 2016,7Hunknown,32,38,7,99, G      1
15,,1.,1,4HINCH,1,0.08,15H20170616.151957,0.000393700787401575,10000.,4HG      2
Kyle,,11,0,15H20170616.191813;                                          G      3
     186       1                                                00000000D      1
     186             -91       1       0                               0D      2
     514       2                                                00010000D      3
     514                       1       1                               0D      4
     510       3                                                00010000D      5
     510             -91       1       1                               0D      6
     510       4                                                00010000D      7
     510             -91       1       1                               0D      8
     510       5                                                00010000D      9
     510             -91       1       1                               0D     10
     510       6                                                00010000D     11
     510             -91       1       1                               0D     12
     510       7                                                00010000D     13
     510             -91       1       1                               0D     14
     510       8                                                00010000D     15
     510             -91       1       1                               0D     16
     510       9                                                00010000D     17
     510             -91       1       1                               0D     18
     510      10                                                00010000D     19
     510             -91       1       1                               0D     20
     508      11                                                00010000D     21
     508                       1       1                               0D     22
     508      12                                                00010000D     23
     508                       1       1                               0D     24
     508      13                                                00010000D     25
     508                       1       1                               0D     26
     508      14                                                00010000D     27
     508                       1       1                               0D     28
     508      15                                                00010000D     29
     508                       1       1                               0D     30
     508      16                                                00010000D     31
     508                       1       1                               0D     32
     508      17                                                00010000D     33
     508                       1       1                               0D     34
     508      18                                                00010000D     35
     508                       1       1                               0D     36
     508      19                                                00010000D     37
     508                       1       1                               0D     38
     508      20                                                00010000D     39
     508                       1       1                               0D     40
     508      21                                                00010000D     41
     508                       1       1                               0D     42
     508      22                                                00010000D     43
     508                       1       1                               0D     44
     126      23                                                00010000D     45
     126       0              13       0                               0D     46
     126      36                                                00010000D     47
     126       0               2       0                               0D     48
     126      38                                                00010000D     49
     126       0              10       0                               0D     50
     126      48                                                00010000D     51
     126       0              10       0                               0D     52
     126      58                                                00010000D     53
     126       0               2       0                               0D     54
     126      60                                                00010000D     55
     126       0              10       0                               0D     56
     126      70                                                00010000D     57
     126       0              10       0                               0D     58
     126      80                                                00010000D     59
     126       0              10       0                               0D     60
     126      90                                                00010000D     61
     126       0               2       0                               0D     62
     126      92                                                00010000D     63
     126       0              10       0                               0D     64
     126     102                                                00010000D     65
     126       0               2       0                               0D     66
     126     104                                                00010000D     67
     126       0               9       0                               0D     68
     128     113                                                00010000D     69
     128       0     -91      14       0                               0D     70
     128     127                                                00010000D     71
     128       0     -91      12       0                               0D     72
     128     139                                                00010000D     73
     128       0     -91       4       0                               0D     74
     128     143                                                00010000D     75
     128       0     -91       3       0                               0D     76
     128     146                                                00010000D     77
     128       0     -91      12       0                               0D     78
     128     158                                                00010000D     79
     128       0     -91      12       0                               0D     80
     128     170                                                00010000D     81
     128       0     -91       3       0                               0D     82
     128     173                                                00010000D     83
     128       0     -91       3       0                               0D     84
     502     176                                                00010000D     85
     502                       5       1                               0D     86
     504     181                                                00010001D     87
     504                       3       1                               0D     88
     406     184                                                00000000D     89
     406                       1      15                               0D     90
     314     185                                                00000200D     91
     314                       1       0                               0D     92
186,3,1,0,0,1,89;                                                      1P      1
514,8,5,1,7,1,9,1,11,1,13,1,15,1,17,1,19,1;                            3P      2
510,69,1,1,21;                                                         5P      3
510,71,1,1,23;                                                         7P      4
510,73,2,1,25,27;                                                      9P      5
510,75,2,1,29,31;                                                     11P      6
510,77,1,1,33;                                                        13P      7
510,79,1,1,35;                                                        15P      8
510,81,2,1,37,39;                                                     17P      9
510,83,2,1,41,43;                                                     19P     10
508,4,0,87,1,1,0,0,87,2,1,0,0,87,3,0,0,0,87,2,0,0;                    21P     11
508,4,0,87,4,0,0,0,87,5,1,0,0,87,6,1,0,0,87,5,0,0;                    23P     12
508,1,0,87,6,0,0;                                                     25P     13
508,1,0,87,1,0,0;                                                     27P     14
508,1,0,87,7,1,0;                                                     29P     15
508,1,0,87,4,1,0;                                                     31P     16
508,4,0,87,8,0,0,0,87,9,1,0,0,87,10,0,0,0,87,9,0,0;                   33P     17
508,4,0,87,7,0,0,0,87,11,1,0,0,87,12,0,0,0,87,11,0,0;                 35P     18
508,1,0,87,12,1,0;                                                    37P     19
508,1,0,87,8,1,0;                                                     39P     20
508,1,0,87,3,1,0;                                                     41P     21
508,1,0,87,10,1,0;                                                    43P     22
126,8,2,0,1,0,0,-3.14159265358979,-3.14159265358979,                  45P     23
-3.14159265358979,-1.5707963267949,-1.5707963267949,0.,0.,            45P     24
1.5707963267949,1.5707963267949,3.14159265358979,                     45P     25
3.14159265358979,3.14159265358979,1.,0.707106781186548,1.,            45P     26
0.707106781186548,1.,0.707106781186548,1.,0.707106781186548,1.,       45P     27
0.25,0.0999999999999999,-3.06161699786838D-17,0.25,                   45P     28
0.0999999999999999,-0.25,-1.53080849893419D-17,                       45P     29
0.0999999999999999,-0.25,-0.25,0.0999999999999999,-0.25,-0.25,        45P     30
0.0999999999999999,0.,-0.25,0.0999999999999999,0.25,                  45P     31
-1.53080849893419D-17,0.0999999999999999,0.25,0.25,                   45P     32
0.0999999999999999,0.25,0.25,0.0999999999999999,                      45P     33
3.06161699786838D-17,-3.14159265358979,3.14159265358979,0.,0.,        45P     34
0.;                                                                   45P     35
126,1,1,0,0,1,0,-1.6,-1.6,0.,0.,1.,1.,0.25,0.0999999999999999,        47P     36
0.,0.25,0.5,0.,-1.6,0.,0.,0.,0.;                                      47P     37
126,8,2,0,1,0,0,-3.14159265358979,-3.14159265358979,                  49P     38
-3.14159265358979,-1.5707963267949,-1.5707963267949,0.,0.,            49P     39
1.5707963267949,1.5707963267949,3.14159265358979,                     49P     40
3.14159265358979,3.14159265358979,1.,0.707106781186548,1.,            49P     41
0.707106781186548,1.,0.707106781186548,1.,0.707106781186548,1.,       49P     42
0.25,0.5,-3.06161699786838D-17,0.25,0.5,-0.25,                        49P     43
-1.53080849893419D-17,0.5,-0.25,-0.25,0.5,-0.25,-0.25,0.5,0.,         49P     44
-0.25,0.5,0.25,-1.53080849893419D-17,0.5,0.25,0.25,0.5,0.25,          49P     45
0.25,0.5,3.06161699786838D-17,-3.14159265358979,                      49P     46
3.14159265358979,0.,0.,0.;                                            49P     47
126,8,2,0,1,0,0,-3.14159265358979,-3.14159265358979,                  51P     48
-3.14159265358979,-1.5707963267949,-1.5707963267949,0.,0.,            51P     49
1.5707963267949,1.5707963267949,3.14159265358979,                     51P     50
3.14159265358979,3.14159265358979,1.,0.707106781186548,1.,            51P     51
0.707106781186548,1.,0.707106781186548,1.,0.707106781186548,1.,       51P     52
1.25,0.5,1.53080849893419D-16,1.25,0.5,1.25,                          51P     53
-7.65404249467096D-17,0.5,1.25,-1.25,0.5,1.25,-1.25,0.5,0.,           51P     54
-1.25,0.5,-1.25,-7.65404249467096D-17,0.5,-1.25,1.25,0.5,-1.25,       51P     55
1.25,0.5,-1.53080849893419D-16,-3.14159265358979,                     51P     56
3.14159265358979,0.,0.,0.;                                            51P     57
126,1,1,0,0,1,0,0.,0.,0.32,0.32,1.,1.,1.25,0.5,0.,1.25,0.1,0.,        53P     58
0.,0.32,0.,0.,0.;                                                     53P     59
126,8,2,0,1,0,0,-3.14159265358979,-3.14159265358979,                  55P     60
-3.14159265358979,-1.5707963267949,-1.5707963267949,0.,0.,            55P     61
1.5707963267949,1.5707963267949,3.14159265358979,                     55P     62
3.14159265358979,3.14159265358979,1.,0.707106781186548,1.,            55P     63
0.707106781186548,1.,0.707106781186548,1.,0.707106781186548,1.,       55P     64
1.25,0.1,1.53080849893419D-16,1.25,0.1,1.25,                          55P     65
-7.65404249467096D-17,0.1,1.25,-1.25,0.1,1.25,-1.25,0.1,0.,           55P     66
-1.25,0.1,-1.25,-7.65404249467096D-17,0.1,-1.25,1.25,0.1,-1.25,       55P     67
1.25,0.1,-1.53080849893419D-16,-3.14159265358979,                     55P     68
3.14159265358979,0.,0.,0.;                                            55P     69
126,8,2,0,1,0,0,-3.14159265358979,-3.14159265358979,                  57P     70
-3.14159265358979,-1.5707963267949,-1.5707963267949,0.,0.,            57P     71
1.5707963267949,1.5707963267949,3.14159265358979,                     57P     72
3.14159265358979,3.14159265358979,1.,0.707106781186547,1.,            57P     73
0.707106781186548,1.,0.707106781186548,1.,0.707106781186547,1.,       57P     74
-1.5,0.5,1.83697019872103D-16,-1.5,0.5,1.5,9.18485099360515D-17,      57P     75
0.5,1.5,1.5,0.5,1.5,1.5,0.5,0.,1.5,0.5,-1.5,                          57P     76
9.18485099360515D-17,0.5,-1.5,-1.5,0.5,-1.5,-1.5,0.5,                 57P     77
-1.83697019872103D-16,-3.14159265358979,3.14159265358979,0.,0.,       57P     78
0.;                                                                   57P     79
126,8,2,0,1,0,0,-3.14159265358979,-3.14159265358979,                  59P     80
-3.14159265358979,-1.5707963267949,-1.5707963267949,0.,0.,            59P     81
1.5707963267949,1.5707963267949,3.14159265358979,                     59P     82
3.14159265358979,3.14159265358979,1.,0.707106781186548,1.,            59P     83
0.707106781186548,1.,0.707106781186548,1.,0.707106781186548,1.,       59P     84
-0.125,0.,1.53080849893419D-17,-0.125,0.,0.125,                       59P     85
7.65404249467096D-18,0.,0.125,0.125,0.,0.125,0.125,0.,0.,0.125,       59P     86
0.,-0.125,7.65404249467096D-18,0.,-0.125,-0.125,0.,-0.125,            59P     87
-0.125,0.,-1.53080849893419D-17,-3.14159265358979,                    59P     88
3.14159265358979,0.,0.,0.;                                            59P     89
126,1,1,0,0,1,0,0.,0.,4.,4.,1.,1.,-0.125,0.,0.,-0.125,0.5,0.,0.,      61P     90
4.,0.,0.,0.;                                                          61P     91
126,8,2,0,1,0,0,-3.14159265358979,-3.14159265358979,                  63P     92
-3.14159265358979,-1.5707963267949,-1.5707963267949,0.,0.,            63P     93
1.5707963267949,1.5707963267949,3.14159265358979,                     63P     94
3.14159265358979,3.14159265358979,1.,0.707106781186548,1.,            63P     95
0.707106781186548,1.,0.707106781186548,1.,0.707106781186548,1.,       63P     96
-0.125,0.5,-1.53080849893419D-17,-0.125,0.5,-0.125,                   63P     97
7.65404249467096D-18,0.5,-0.125,0.125,0.5,-0.125,0.125,0.5,0.,        63P     98
0.125,0.5,0.125,7.65404249467096D-18,0.5,0.125,-0.125,0.5,0.125,      63P     99
-0.125,0.5,1.53080849893419D-17,-3.14159265358979,                    63P    100
3.14159265358979,0.,0.,0.;                                            63P    101
126,1,1,0,0,1,0,-0.333333333333333,-0.333333333333333,0.,0.,1.,       65P    102
1.,-1.5,0.5,0.,-1.5,0.,0.,-0.333333333333333,0.,0.,0.,0.;             65P    103
126,8,2,0,1,0,0,-3.14159265358979,-3.14159265358979,                  67P    104
-3.14159265358979,-1.5707963267949,-1.5707963267949,0.,0.,            67P    105
1.5707963267949,1.5707963267949,3.14159265358979,                     67P    106
3.14159265358979,3.14159265358979,1.,0.707106781186547,1.,            67P    107
0.707106781186548,1.,0.707106781186548,1.,0.707106781186547,1.,       67P    108
-1.5,0.,-1.83697019872103D-16,-1.5,0.,-1.5,9.18485099360515D-17,      67P    109
0.,-1.5,1.5,0.,-1.5,1.5,0.,0.,1.5,0.,1.5,9.18485099360515D-17,        67P    110
0.,1.5,-1.5,0.,1.5,-1.5,0.,1.83697019872103D-16,                      67P    111
-3.14159265358979,3.14159265358979,0.,0.,0.;                          67P    112
128,1,8,1,2,0,1,0,0,1,0.,0.,1.6,1.6,-3.14159265358979,                69P    113
-3.14159265358979,-3.14159265358979,-1.5707963267949,                 69P    114
-1.5707963267949,0.,0.,1.5707963267949,1.5707963267949,               69P    115
3.14159265358979,3.14159265358979,3.14159265358979,1.,1.,             69P    116
0.707106781186548,0.707106781186548,1.,1.,0.707106781186548,          69P    117
0.707106781186548,1.,1.,0.707106781186548,0.707106781186548,1.,       69P    118
1.,0.707106781186548,0.707106781186548,1.,1.,0.25,                    69P    119
0.0999999999999999,0.,0.25,0.5,0.,0.25,0.0999999999999999,0.25,       69P    120
0.25,0.5,0.25,0.,0.0999999999999999,0.25,0.,0.5,0.25,-0.25,           69P    121
0.0999999999999999,0.25,-0.25,0.5,0.25,-0.25,0.0999999999999999,      69P    122
0.,-0.25,0.5,0.,-0.25,0.0999999999999999,-0.25,-0.25,0.5,-0.25,       69P    123
0.,0.0999999999999999,-0.25,0.,0.5,-0.25,0.25,                        69P    124
0.0999999999999999,-0.25,0.25,0.5,-0.25,0.25,0.0999999999999999,      69P    125
0.,0.25,0.5,0.,0.,1.6,-3.14159265358979,3.14159265358979;             69P    126
128,1,8,1,2,0,1,0,0,1,0.,0.,0.32,0.32,-3.14159265358979,              71P    127
-3.14159265358979,-3.14159265358979,-1.5707963267949,                 71P    128
-1.5707963267949,0.,0.,1.5707963267949,1.5707963267949,               71P    129
3.14159265358979,3.14159265358979,3.14159265358979,1.,1.,             71P    130
0.707106781186548,0.707106781186548,1.,1.,0.707106781186548,          71P    131
0.707106781186548,1.,1.,0.707106781186548,0.707106781186548,1.,       71P    132
1.,0.707106781186548,0.707106781186548,1.,1.,1.25,0.5,0.,1.25,        71P    133
0.1,0.,1.25,0.5,1.25,1.25,0.1,1.25,0.,0.5,1.25,0.,0.1,1.25,           71P    134
-1.25,0.5,1.25,-1.25,0.1,1.25,-1.25,0.5,0.,-1.25,0.1,0.,-1.25,        71P    135
0.5,-1.25,-1.25,0.1,-1.25,0.,0.5,-1.25,0.,0.1,-1.25,1.25,0.5,         71P    136
-1.25,1.25,0.1,-1.25,1.25,0.5,0.,1.25,0.1,0.,0.,0.32,                 71P    137
-3.14159265358979,3.14159265358979;                                   71P    138
128,1,1,1,1,0,0,1,0,0,-3.175,-3.175,3.175,3.175,-3.175,-3.175,        73P    139
3.175,3.175,1.,1.,1.,1.,-1.25,0.0999999999999999,-1.25,-1.25,         73P    140
0.0999999999999999,1.25,1.25,0.0999999999999999,-1.25,1.25,           73P    141
0.0999999999999999,1.25,-3.175,3.175,-3.175,3.175;                    73P    142
128,1,1,1,1,0,0,1,0,0,-3.81,-3.81,3.81,3.81,-3.81,-3.81,3.81,         75P    143
3.81,1.,1.,1.,1.,-1.5,0.5,-1.5,-1.5,0.5,1.5,1.5,0.5,-1.5,1.5,         75P    144
0.5,1.5,-3.81,3.81,-3.81,3.81;                                        75P    145
128,1,8,1,2,0,1,0,0,1,0.,0.,4.,4.,-3.14159265358979,                  77P    146
-3.14159265358979,-3.14159265358979,-1.5707963267949,                 77P    147
-1.5707963267949,0.,0.,1.5707963267949,1.5707963267949,               77P    148
3.14159265358979,3.14159265358979,3.14159265358979,1.,1.,             77P    149
0.707106781186548,0.707106781186548,1.,1.,0.707106781186548,          77P    150
0.707106781186548,1.,1.,0.707106781186548,0.707106781186548,1.,       77P    151
1.,0.707106781186548,0.707106781186548,1.,1.,-0.125,0.,0.,            77P    152
-0.125,0.5,0.,-0.125,0.,0.125,-0.125,0.5,0.125,0.,0.,0.125,0.,        77P    153
0.5,0.125,0.125,0.,0.125,0.125,0.5,0.125,0.125,0.,0.,0.125,0.5,       77P    154
0.,0.125,0.,-0.125,0.125,0.5,-0.125,0.,0.,-0.125,0.,0.5,-0.125,       77P    155
-0.125,0.,-0.125,-0.125,0.5,-0.125,-0.125,0.,0.,-0.125,0.5,0.,        77P    156
0.,4.,-3.14159265358979,3.14159265358979;                             77P    157
128,1,8,1,2,0,1,0,0,1,0.,0.,0.333333333333333,0.333333333333333,      79P    158
-3.14159265358979,-3.14159265358979,-3.14159265358979,                79P    159
-1.5707963267949,-1.5707963267949,0.,0.,1.5707963267949,              79P    160
1.5707963267949,3.14159265358979,3.14159265358979,                    79P    161
3.14159265358979,1.,1.,0.707106781186548,0.707106781186548,1.,        79P    162
1.,0.707106781186548,0.707106781186548,1.,1.,0.707106781186548,       79P    163
0.707106781186548,1.,1.,0.707106781186548,0.707106781186548,1.,       79P    164
1.,-1.5,0.5,0.,-1.5,0.,0.,-1.5,0.5,1.5,-1.5,0.,1.5,0.,0.5,1.5,        79P    165
0.,0.,1.5,1.5,0.5,1.5,1.5,0.,1.5,1.5,0.5,0.,1.5,0.,0.,1.5,0.5,        79P    166
-1.5,1.5,0.,-1.5,0.,0.5,-1.5,0.,0.,-1.5,-1.5,0.5,-1.5,-1.5,0.,        79P    167
-1.5,-1.5,0.5,0.,-1.5,0.,0.,0.,0.333333333333333,                     79P    168
-3.14159265358979,3.14159265358979;                                   79P    169
128,1,1,1,1,0,0,1,0,0,-3.81,-3.81,3.81,3.81,-3.81,-3.81,3.81,         81P    170
3.81,1.,1.,1.,1.,-1.5,0.,1.5,-1.5,0.,-1.5,1.5,0.,1.5,1.5,0.,          81P    171
-1.5,-3.81,3.81,-3.81,3.81;                                           81P    172
128,1,1,1,1,0,0,1,0,0,-0.635,-0.635,0.635,0.635,-0.635,-0.635,        83P    173
0.635,0.635,1.,1.,1.,1.,-0.25,0.5,-0.25,-0.25,0.5,0.25,0.25,0.5,      83P    174
-0.25,0.25,0.5,0.25,-0.635,0.635,-0.635,0.635;                        83P    175
502,8,0.25,0.1,-3.06161699786838D-17,0.25,0.5,                        85P    176
-3.06161699786838D-17,1.25,0.5,-1.53080849893419D-16,1.25,0.1,        85P    177
-1.53080849893419D-16,-1.5,0.5,1.83697019872103D-16,-0.125,0.,        85P    178
1.53080849893419D-17,-0.125,0.5,1.53080849893419D-17,-1.5,0.,         85P    179
1.83697019872103D-16;                                                 85P    180
504,12,45,85,1,85,1,47,85,1,85,2,49,85,2,85,2,51,85,3,85,3,53,        87P    181
85,3,85,4,55,85,4,85,4,57,85,5,85,5,59,85,6,85,6,61,85,6,85,7,        87P    182
63,85,7,85,7,65,85,5,85,8,67,85,8,85,8;                               87P    183
406,1,6HSolid1;                                                       89P    184
314,99.6078431372549,99.6078431372549,100.,;                          91P    185
S      1G      3D     92P    185                                        T      1
