                                                                        S      1
,,,10Hmotormount,22HAutodesk Inventor 2016,7Hunknown,32,38,7,99,15,,1., G      1
1,4HINCH,1,0.08,15H20170616.152312,0.000393700787401575,10000.,4HKyle,, G      2
11,0,15H20170527.225949;                                                G      3
     186       1                                                00000000D      1
     186            -195       1       0                               0D      2
     514       2                                                00010000D      3
     514                       2       1                               0D      4
     510       4                                                00010000D      5
     510            -195       1       1                               0D      6
     510       5                                                00010000D      7
     510            -195       1       1                               0D      8
     510       6                                                00010000D      9
     510            -195       1       1                               0D     10
     510       7                                                00010000D     11
     510            -195       1       1                               0D     12
     510       8                                                00010000D     13
     510            -195       1       1                               0D     14
     510       9                                                00010000D     15
     510            -195       1       1                               0D     16
     510      10                                                00010000D     17
     510            -195       1       1                               0D     18
     510      11                                                00010000D     19
     510            -195       1       1                               0D     20
     510      12                                                00010000D     21
     510            -195       1       1                               0D     22
     510      13                                                00010000D     23
     510            -195       1       1                               0D     24
     510      14                                                00010000D     25
     510            -195       1       1                               0D     26
     510      15                                                00010000D     27
     510            -195       1       1                               0D     28
     510      16                                                00010000D     29
     510            -195       1       1                               0D     30
     510      17                                                00010000D     31
     510            -195       1       1                               0D     32
     510      18                                                00010000D     33
     510            -195       1       1                               0D     34
     510      19                                                00010000D     35
     510            -195       1       1                               0D     36
     508      20                                                00010000D     37
     508                       1       1                               0D     38
     508      21                                                00010000D     39
     508                       1       1                               0D     40
     508      22                                                00010000D     41
     508                       2       1                               0D     42
     508      24                                                00010000D     43
     508                       1       1                               0D     44
     508      25                                                00010000D     45
     508                       1       1                               0D     46
     508      26                                                00010000D     47
     508                       2       1                               0D     48
     508      28                                                00010000D     49
     508                       1       1                               0D     50
     508      29                                                00010000D     51
     508                       1       1                               0D     52
     508      30                                                00010000D     53
     508                       1       1                               0D     54
     508      31                                                00010000D     55
     508                       1       1                               0D     56
     508      32                                                00010000D     57
     508                       1       1                               0D     58
     508      33                                                00010000D     59
     508                       1       1                               0D     60
     508      34                                                00010000D     61
     508                       1       1                               0D     62
     508      35                                                00010000D     63
     508                       1       1                               0D     64
     508      36                                                00010000D     65
     508                       1       1                               0D     66
     508      37                                                00010000D     67
     508                       2       1                               0D     68
     508      39                                                00010000D     69
     508                       1       1                               0D     70
     508      40                                                00010000D     71
     508                       2       1                               0D     72
     508      42                                                00010000D     73
     508                       1       1                               0D     74
     508      43                                                00010000D     75
     508                       1       1                               0D     76
     508      44                                                00010000D     77
     508                       1       1                               0D     78
     508      45                                                00010000D     79
     508                       1       1                               0D     80
     508      46                                                00010000D     81
     508                       1       1                               0D     82
     508      47                                                00010000D     83
     508                       1       1                               0D     84
     508      48                                                00010000D     85
     508                       1       1                               0D     86
     126      49                                                00010000D     87
     126       0              12       0                               0D     88
     126      61                                                00010000D     89
     126       0               5       0                               0D     90
     126      66                                                00010000D     91
     126       0              12       0                               0D     92
     126      78                                                00010000D     93
     126       0              15       0                               0D     94
     126      93                                                00010000D     95
     126       0               4       0                               0D     96
     126      97                                                00010000D     97
     126       0               6       0                               0D     98
     126     103                                                00010000D     99
     126       0              11       0                               0D    100
     126     114                                                00010000D    101
     126       0              15       0                               0D    102
     126     129                                                00010000D    103
     126       0               4       0                               0D    104
     126     133                                                00010000D    105
     126       0              12       0                               0D    106
     126     145                                                00010000D    107
     126       0              11       0                               0D    108
     126     156                                                00010000D    109
     126       0               3       0                               0D    110
     126     159                                                00010000D    111
     126       0               6       0                               0D    112
     126     165                                                00010000D    113
     126       0              11       0                               0D    114
     126     176                                                00010000D    115
     126       0              10       0                               0D    116
     126     186                                                00010000D    117
     126       0               4       0                               0D    118
     126     190                                                00010000D    119
     126       0              10       0                               0D    120
     126     200                                                00010000D    121
     126       0              10       0                               0D    122
     126     210                                                00010000D    123
     126       0               4       0                               0D    124
     126     214                                                00010000D    125
     126       0              12       0                               0D    126
     126     226                                                00010000D    127
     126       0               4       0                               0D    128
     126     230                                                00010000D    129
     126       0               3       0                               0D    130
     126     233                                                00010000D    131
     126       0               3       0                               0D    132
     126     236                                                00010000D    133
     126       0               2       0                               0D    134
     126     238                                                00010000D    135
     126       0               2       0                               0D    136
     126     240                                                00010000D    137
     126       0               2       0                               0D    138
     126     242                                                00010000D    139
     126       0               3       0                               0D    140
     126     245                                                00010000D    141
     126       0               3       0                               0D    142
     126     248                                                00010000D    143
     126       0               2       0                               0D    144
     126     250                                                00010000D    145
     126       0               2       0                               0D    146
     126     252                                                00010000D    147
     126       0               3       0                               0D    148
     126     255                                                00010000D    149
     126       0               2       0                               0D    150
     126     257                                                00010000D    151
     126       0               2       0                               0D    152
     126     259                                                00010000D    153
     126       0               2       0                               0D    154
     126     261                                                00010000D    155
     126       0               2       0                               0D    156
     128     263                                                00010000D    157
     128       0    -195      24       0                               0D    158
     128     287                                                00010000D    159
     128       0    -195       6       0                               0D    160
     128     293                                                00010000D    161
     128       0    -195      26       0                               0D    162
     128     319                                                00010000D    163
     128       0    -195      24       0                               0D    164
     128     343                                                00010000D    165
     128       0    -195       5       0                               0D    166
     128     348                                                00010000D    167
     128       0    -195      22       0                               0D    168
     128     370                                                00010000D    169
     128       0    -195      17       0                               0D    170
     128     387                                                00010000D    171
     128       0    -195      19       0                               0D    172
     128     406                                                00010000D    173
     128       0    -195       4       0                               0D    174
     128     410                                                00010000D    175
     128       0    -195       5       0                               0D    176
     128     415                                                00010000D    177
     128       0    -195       4       0                               0D    178
     128     419                                                00010000D    179
     128       0    -195       3       0                               0D    180
     128     422                                                00010000D    181
     128       0    -195       4       0                               0D    182
     128     426                                                00010000D    183
     128       0    -195       4       0                               0D    184
     128     430                                                00010000D    185
     128       0    -195       3       0                               0D    186
     128     433                                                00010000D    187
     128       0    -195       5       0                               0D    188
     502     438                                                00010000D    189
     502                      13       1                               0D    190
     504     451                                                00010001D    191
     504                      10       1                               0D    192
     406     461                                                00000000D    193
     406                       1      15                               0D    194
     314     462                                                00000200D    195
     314                       1       0                               0D    196
186,3,1,0,0,1,193;                                                     1P      1
514,16,5,1,7,1,9,1,11,1,13,1,15,1,17,1,19,1,21,1,23,1,25,1,27,1,       3P      2
29,1,31,1,33,1,35,1;                                                   3P      3
510,157,1,1,37;                                                        5P      4
510,159,1,1,39;                                                        7P      5
510,161,1,1,41;                                                        9P      6
510,163,1,1,43;                                                       11P      7
510,165,1,1,45;                                                       13P      8
510,167,1,1,47;                                                       15P      9
510,169,1,1,49;                                                       17P     10
510,171,1,1,51;                                                       19P     11
510,173,2,1,53,55;                                                    21P     12
510,175,4,1,57,59,61,63;                                              23P     13
510,177,1,1,65;                                                       25P     14
510,179,1,1,67;                                                       27P     15
510,181,1,1,69;                                                       29P     16
510,183,1,1,71;                                                       31P     17
510,185,5,1,73,75,77,79,81;                                           33P     18
510,187,2,1,83,85;                                                    35P     19
508,4,0,191,1,0,0,0,191,2,1,0,0,191,3,1,0,0,191,2,0,0;                37P     20
508,1,0,191,3,0,0;                                                    39P     21
508,5,0,191,4,0,0,0,191,5,1,0,0,191,6,0,0,0,191,7,0,0,0,191,5,0,      41P     22
0;                                                                    41P     23
508,4,0,191,8,0,0,0,191,9,1,0,0,191,10,1,0,0,191,9,0,0;               43P     24
508,1,0,191,10,0,0;                                                   45P     25
508,5,0,191,11,0,0,0,191,12,1,0,0,191,13,0,0,0,191,14,0,0,0,191,      47P     26
12,0,0;                                                               47P     27
508,4,0,191,15,0,0,0,191,16,1,0,0,191,17,0,0,0,191,16,0,0;            49P     28
508,4,0,191,18,0,0,0,191,19,1,0,0,191,20,0,0,0,191,19,0,0;            51P     29
508,1,0,191,18,1,0;                                                   53P     30
508,1,0,191,15,1,0;                                                   55P     31
508,4,0,191,21,0,0,0,191,22,0,0,0,191,23,0,0,0,191,24,0,0;            57P     32
508,2,0,191,6,1,0,0,191,7,1,0;                                        59P     33
508,2,0,191,13,1,0,0,191,14,1,0;                                      61P     34
508,1,0,191,17,1,0;                                                   63P     35
508,4,0,191,24,1,0,0,191,25,1,0,0,191,26,1,0,0,191,27,1,0;            65P     36
508,5,0,191,23,1,0,0,191,28,0,0,0,191,29,0,0,0,191,30,1,0,0,191,      67P     37
25,0,0;                                                               67P     38
508,4,0,191,22,1,0,0,191,31,0,0,0,191,32,0,0,0,191,28,1,0;            69P     39
508,5,0,191,21,1,0,0,191,27,0,0,0,191,33,0,0,0,191,34,0,0,0,191,      71P     40
31,1,0;                                                               71P     41
508,4,0,191,35,0,0,0,191,33,1,0,0,191,26,0,0,0,191,30,0,0;            73P     42
508,1,0,191,1,1,0;                                                    75P     43
508,1,0,191,4,1,0;                                                    77P     44
508,1,0,191,8,1,0;                                                    79P     45
508,1,0,191,11,1,0;                                                   81P     46
508,4,0,191,29,1,0,0,191,32,1,0,0,191,34,1,0,0,191,35,1,0;            83P     47
508,1,0,191,20,1,0;                                                   85P     48
126,8,2,0,1,0,0,-3.14159265358979,-3.14159265358979,                  87P     49
-3.14159265358979,-1.5707963267949,-1.5707963267949,0.,0.,            87P     50
1.5707963267949,1.5707963267949,3.14159265358979,                     87P     51
3.14159265358979,3.14159265358979,1.,0.707106781186553,1.,            87P     52
0.707106781186552,1.,0.707106781186553,1.,0.707106781186553,1.,       87P     53
0.,0.167499999999999,-1.14155511811024,0.,0.108444881889763,          87P     54
-1.14155511811024,0.,0.108444881889763,-1.0825,0.,                    87P     55
0.108444881889763,-1.02344488188976,0.,0.167499999999999,             87P     56
-1.02344488188976,0.,0.226555118110236,-1.02344488188976,0.,          87P     57
0.226555118110236,-1.0825,0.,0.226555118110236,                       87P     58
-1.14155511811024,0.,0.167499999999999,-1.14155511811024,             87P     59
-3.14159265358979,3.14159265358979,0.,0.,0.;                          87P     60
126,1,1,0,0,1,0,-2.56387503820103D-15,-2.56387503820103D-15,          89P     61
8.46666666666666,8.46666666666666,1.,1.,1.94109474709895D-32,         89P     62
0.167499999999999,-1.14155511811024,-0.5,0.167499999999999,           89P     63
-1.14155511811024,-2.56387503820103D-15,8.46666666666666,0.,0.,       89P     64
0.;                                                                   89P     65
126,8,2,0,1,0,0,-3.14159265358979,-3.14159265358979,                  91P     66
-3.14159265358979,-1.5707963267949,-1.5707963267949,0.,0.,            91P     67
1.5707963267949,1.5707963267949,3.14159265358979,                     91P     68
3.14159265358979,3.14159265358979,1.,0.707106781186553,1.,            91P     69
0.707106781186552,1.,0.707106781186553,1.,0.707106781186553,1.,       91P     70
-0.5,0.167499999999999,-1.14155511811024,-0.5,0.108444881889763,      91P     71
-1.14155511811024,-0.5,0.108444881889763,-1.0825,-0.5,                91P     72
0.108444881889763,-1.02344488188976,-0.5,0.167499999999999,           91P     73
-1.02344488188976,-0.5,0.226555118110236,-1.02344488188976,-0.5,      91P     74
0.226555118110236,-1.0825,-0.5,0.226555118110236,                     91P     75
-1.14155511811024,-0.5,0.167499999999999,-1.14155511811024,           91P     76
-3.14159265358979,3.14159265358979,0.,0.,0.;                          91P     77
126,8,2,0,1,0,0,-3.14159265358979,-3.14159265358979,                  93P     78
-3.14159265358979,-1.5707963267949,-1.5707963267949,0.,0.,            93P     79
1.5707963267949,1.5707963267949,3.14159265358979,                     93P     80
3.14159265358979,3.14159265358979,1.,0.707106781186553,1.,            93P     81
0.707106781186553,1.,0.707106781186553,1.,0.707106781186553,1.,       93P     82
-3.96105052712844D-17,1.0825,-0.226555118110236,                      93P     83
-3.96105052712844D-17,1.02344488188976,-0.226555118110236,            93P     84
-2.92854104920809D-17,1.02344488188976,-0.1675,                       93P     85
-1.89603157128774D-17,1.02344488188976,-0.108444881889764,            93P     86
-1.89603157128774D-17,1.0825,-0.108444881889764,                      93P     87
-1.89603157128774D-17,1.14155511811024,-0.108444881889764,            93P     88
-2.92854104920809D-17,1.14155511811024,-0.1675,                       93P     89
-3.96105052712844D-17,1.14155511811024,-0.226555118110236,            93P     90
-3.96105052712844D-17,1.0825,-0.226555118110236,                      93P     91
-3.14159265358979,3.14159265358979,0.,0.,0.;                          93P     92
126,1,1,0,0,1,0,9.91799235331803D-17,9.91799235331803D-17,4.953,      95P     93
4.953,1.,1.,-3.96105052712844D-17,1.0825,-0.226555118110236,          95P     94
-0.2925,1.0825,-0.226555118110236,9.91799235331803D-17,4.953,0.,      95P     95
0.,0.;                                                                95P     96
126,2,2,0,0,0,0,-3.14159265358979,-3.14159265358979,                  97P     97
-3.14159265358979,-1.5707963267949,-1.5707963267949,                  97P     98
-1.5707963267949,1.,0.707106781186551,1.,-0.351555118110236,          97P     99
1.02344488188976,-0.1675,-0.351555118110236,1.02344488188976,         97P    100
-0.226555118110236,-0.2925,1.0825,-0.226555118110236,                 97P    101
-3.14159265358979,-1.5707963267949,0.,0.,0.;                          97P    102
126,6,2,0,0,0,0,-1.5707963267949,-1.5707963267949,                    99P    103
-1.5707963267949,0.,0.,1.5707963267949,1.5707963267949,               99P    104
3.14159265358979,3.14159265358979,3.14159265358979,1.,                99P    105
0.707106781186551,1.,0.707106781186551,1.,0.707106781186551,1.,       99P    106
-0.2925,1.0825,-0.226555118110236,-0.233444881889764,                 99P    107
1.14155511811024,-0.226555118110236,-0.233444881889764,               99P    108
1.14155511811024,-0.1675,-0.233444881889764,1.14155511811024,         99P    109
-0.108444881889764,-0.2925,1.0825,-0.108444881889764,                 99P    110
-0.351555118110236,1.02344488188976,-0.108444881889764,               99P    111
-0.351555118110236,1.02344488188976,-0.1675,-1.5707963267949,         99P    112
3.14159265358979,0.,0.,0.;                                            99P    113
126,8,2,0,1,0,0,-3.14159265358979,-3.14159265358979,                 101P    114
-3.14159265358979,-1.5707963267949,-1.5707963267949,0.,0.,           101P    115
1.5707963267949,1.5707963267949,3.14159265358979,                    101P    116
3.14159265358979,3.14159265358979,1.,0.707106781186548,1.,           101P    117
0.707106781186547,1.,0.707106781186548,1.,0.707106781186548,1.,      101P    118
-3.96105052712844D-17,0.1675,-0.226555118110236,                     101P    119
-3.96105052712844D-17,0.108444881889763,-0.226555118110236,          101P    120
-2.92854104920808D-17,0.108444881889763,-0.1675,                     101P    121
-1.89603157128773D-17,0.108444881889763,-0.108444881889763,          101P    122
-1.89603157128773D-17,0.1675,-0.108444881889763,                     101P    123
-1.89603157128773D-17,0.226555118110236,-0.108444881889763,          101P    124
-2.92854104920808D-17,0.226555118110236,-0.1675,                     101P    125
-3.96105052712844D-17,0.226555118110236,-0.226555118110236,          101P    126
-3.96105052712844D-17,0.1675,-0.226555118110236,                     101P    127
-3.14159265358979,3.14159265358979,0.,0.,0.;                         101P    128
126,1,1,0,0,1,0,9.91799235331803D-17,9.91799235331803D-17,           103P    129
8.46666666666666,8.46666666666666,1.,1.,-3.96105052712844D-17,       103P    130
0.1675,-0.226555118110236,-0.5,0.1675,-0.226555118110236,            103P    131
9.91799235331803D-17,8.46666666666666,0.,0.,0.;                      103P    132
126,8,2,0,1,0,0,-3.14159265358979,-3.14159265358979,                 105P    133
-3.14159265358979,-1.5707963267949,-1.5707963267949,0.,0.,           105P    134
1.5707963267949,1.5707963267949,3.14159265358979,                    105P    135
3.14159265358979,3.14159265358979,1.,0.707106781186548,1.,           105P    136
0.707106781186547,1.,0.707106781186548,1.,0.707106781186548,1.,      105P    137
-0.5,0.1675,-0.226555118110236,-0.5,0.108444881889763,               105P    138
-0.226555118110236,-0.5,0.108444881889763,-0.1675,-0.5,              105P    139
0.108444881889763,-0.108444881889763,-0.5,0.1675,                    105P    140
-0.108444881889763,-0.5,0.226555118110236,-0.108444881889763,        105P    141
-0.5,0.226555118110236,-0.1675,-0.5,0.226555118110236,               105P    142
-0.226555118110236,-0.5,0.1675,-0.226555118110236,                   105P    143
-3.14159265358979,3.14159265358979,0.,0.,0.;                         105P    144
126,8,2,0,1,0,0,-3.14159265358979,-3.14159265358979,                 107P    145
-3.14159265358979,-1.5707963267949,-1.5707963267949,0.,0.,           107P    146
1.5707963267949,1.5707963267949,3.14159265358979,                    107P    147
3.14159265358979,3.14159265358979,1.,0.707106781186559,1.,           107P    148
0.707106781186559,1.,0.707106781186559,1.,0.707106781186559,1.,      107P    149
0.,1.0825,-1.14155511811024,0.,1.02344488188976,                     107P    150
-1.14155511811024,0.,1.02344488188976,-1.0825,0.,                    107P    151
1.02344488188976,-1.02344488188976,0.,1.0825,-1.02344488188976,      107P    152
0.,1.14155511811024,-1.02344488188976,0.,1.14155511811024,           107P    153
-1.0825,0.,1.14155511811024,-1.14155511811024,0.,1.0825,             107P    154
-1.14155511811024,-3.14159265358979,3.14159265358979,0.,0.,0.;       107P    155
126,1,1,0,0,1,0,-2.56387503820103D-15,-2.56387503820103D-15,         109P    156
4.953,4.953,1.,1.,0.,1.0825,-1.14155511811024,-0.2925,1.0825,        109P    157
-1.14155511811024,-2.56387503820103D-15,4.953,0.,0.,0.;              109P    158
126,2,2,0,0,0,0,-3.14159265358979,-3.14159265358979,                 111P    159
-3.14159265358979,-1.5707963267949,-1.5707963267949,                 111P    160
-1.5707963267949,1.,0.70710678118655,1.,-0.351555118110236,          111P    161
1.02344488188976,-1.0825,-0.351555118110236,1.02344488188976,        111P    162
-1.14155511811024,-0.2925,1.0825,-1.14155511811024,                  111P    163
-3.14159265358979,-1.5707963267949,0.,0.,0.;                         111P    164
126,6,2,0,0,0,0,-1.5707963267949,-1.5707963267949,                   113P    165
-1.5707963267949,-1.77635683940025D-15,-1.77635683940025D-15,        113P    166
1.5707963267949,1.5707963267949,3.14159265358979,                    113P    167
3.14159265358979,3.14159265358979,1.,0.707106781186548,1.,           113P    168
0.707106781186548,1.,0.707106781186551,1.,-0.2925,1.0825,            113P    169
-1.14155511811024,-0.233444881889764,1.14155511811024,               113P    170
-1.14155511811024,-0.233444881889764,1.14155511811024,-1.0825,       113P    171
-0.233444881889764,1.14155511811024,-1.02344488188976,-0.2925,       113P    172
1.0825,-1.02344488188976,-0.351555118110236,1.02344488188976,        113P    173
-1.02344488188976,-0.351555118110236,1.02344488188976,-1.0825,       113P    174
-1.5707963267949,3.14159265358979,0.,0.,0.;                          113P    175
126,8,2,0,1,0,0,-3.14159265358979,-3.14159265358979,                 115P    176
-3.14159265358979,-1.5707963267949,-1.5707963267949,0.,0.,           115P    177
1.5707963267949,1.5707963267949,3.14159265358979,                    115P    178
3.14159265358979,3.14159265358979,1.,0.707106781186549,1.,           115P    179
0.70710678118655,1.,0.707106781186549,1.,0.707106781186548,1.,       115P    180
-0.28125,-1.25,-0.625,-0.28125,-1.25,-0.96875,-0.625,-1.25,          115P    181
-0.96875,-0.96875,-1.25,-0.96875,-0.96875,-1.25,-0.625,-0.96875,     115P    182
-1.25,-0.28125,-0.625,-1.25,-0.28125,-0.28125,-1.25,-0.28125,        115P    183
-0.28125,-1.25,-0.625,-3.14159265358979,3.14159265358979,0.,0.,      115P    184
0.;                                                                  115P    185
126,1,1,0,0,1,0,-5.82794238648376D-17,-5.82794238648376D-17,         117P    186
6.81818181818182,6.81818181818182,1.,1.,-0.28125,-1.25,-0.625,       117P    187
-0.28125,1.09375,-0.625,-5.82794238648376D-17,6.81818181818182,      117P    188
0.,0.,0.;                                                            117P    189
126,8,2,0,1,0,0,-3.14159265358979,-3.14159265358979,                 119P    190
-3.14159265358979,-1.5707963267949,-1.5707963267949,0.,0.,           119P    191
1.5707963267949,1.5707963267949,3.14159265358979,                    119P    192
3.14159265358979,3.14159265358979,1.,0.707106781186548,1.,           119P    193
0.707106781186548,1.,0.707106781186548,1.,0.70710678118655,1.,       119P    194
-0.28125,1.09375,-0.625,-0.28125,1.09375,-0.28125,-0.625,0.75,       119P    195
-0.28125,-0.96875,0.40625,-0.28125,-0.96875,0.40625,-0.625,          119P    196
-0.96875,0.40625,-0.96875,-0.625,0.75,-0.96875,-0.28125,1.09375,     119P    197
-0.96875,-0.28125,1.09375,-0.625,-3.14159265358979,                  119P    198
3.14159265358979,0.,0.,0.;                                           119P    199
126,8,2,0,1,0,0,-3.14159265358979,-3.14159265358979,                 121P    200
-3.14159265358979,-1.5707963267949,-1.5707963267949,0.,0.,           121P    201
1.5707963267949,1.5707963267949,3.14159265358979,                    121P    202
3.14159265358979,3.14159265358979,1.,0.707106781186548,1.,           121P    203
0.707106781186548,1.,0.707106781186548,1.,0.707106781186548,1.,      121P    204
-0.18875,-1.25,-0.625,-0.18875,-1.25,-0.18875,-0.625,-1.25,          121P    205
-0.18875,-1.06125,-1.25,-0.18875,-1.06125,-1.25,-0.625,-1.06125,     121P    206
-1.25,-1.06125,-0.625,-1.25,-1.06125,-0.18875,-1.25,-1.06125,        121P    207
-0.18875,-1.25,-0.625,-3.14159265358979,3.14159265358979,0.,0.,      121P    208
0.;                                                                  121P    209
126,1,1,0,0,1,0,-2.86532951289398,-2.86532951289398,                 123P    210
2.00814100200372D-32,2.00814100200372D-32,1.,1.,-0.18875,-1.25,      123P    211
-0.625,-0.18875,2.28819587949319D-17,-0.625,-2.86532951289398,       123P    212
2.00814100200372D-32,0.,0.,0.;                                       123P    213
126,8,2,0,1,0,0,-3.14159265358979,-3.14159265358979,                 125P    214
-3.14159265358979,-1.5707963267949,-1.5707963267949,0.,0.,           125P    215
1.5707963267949,1.5707963267949,3.14159265358979,                    125P    216
3.14159265358979,3.14159265358979,1.,0.707106781186548,1.,           125P    217
0.707106781186548,1.,0.707106781186548,1.,0.707106781186548,1.,      125P    218
-0.18875,2.28819587949319D-17,-0.625,-0.18875,                       125P    219
2.28819587949319D-17,-1.06125,-0.625,-1.15627468808847D-32,          125P    220
-1.06125,-1.06125,-2.28819587949319D-17,-1.06125,-1.06125,           125P    221
-2.28819587949319D-17,-0.625,-1.06125,-2.28819587949319D-17,         125P    222
-0.18875,-0.625,8.76051512124124D-33,-0.18875,-0.18875,              125P    223
2.28819587949319D-17,-0.18875,-0.18875,2.28819587949319D-17,         125P    224
-0.625,-3.14159265358979,3.14159265358979,0.,0.,0.;                  125P    225
126,1,1,0,0,1,0,-3.03083644086084,-3.03083644086084,                 127P    226
1.01027881362028,1.01027881362028,1.,1.,-1.25,0.124999999999999,     127P    227
-1.25,-0.125,1.25,-1.25,-3.03083644086084,1.01027881362028,0.,       127P    228
0.,0.;                                                               127P    229
126,1,1,0,0,1,0,-1.5875,-1.5875,1.5875,1.5875,1.,1.,-1.25,           129P    230
0.124999999999999,0.,-1.25,0.124999999999999,-1.25,-1.5875,          129P    231
1.5875,0.,0.,0.;                                                     129P    232
126,1,1,0,0,1,0,-2.13281082875392,-2.13281082875392,                 131P    233
1.9083044257272,1.9083044257272,1.,1.,-0.125,1.25,0.,-1.25,          131P    234
0.124999999999999,0.,-2.13281082875392,1.9083044257272,0.,0.,0.;     131P    235
126,1,1,0,0,1,0,-2.38125,-2.38125,0.79375,0.79375,1.,1.,-0.125,      133P    236
1.25,-1.25,-0.125,1.25,0.,-2.38125,0.79375,0.,0.,0.;                 133P    237
126,1,1,0,0,1,0,-0.3175,-0.3175,0.,0.,1.,1.,-0.125,1.25,0.,0.,       135P    238
1.25,0.,-0.3175,0.,0.,0.,0.;                                         135P    239
126,1,1,0,0,1,0,-3.175,-3.175,0.,0.,1.,1.,0.,1.25,0.,                137P    240
-1.74838271594513D-16,1.25,-1.25,-3.175,0.,0.,0.,0.;                 137P    241
126,1,1,0,0,1,0,-3.175,-3.175,-2.8575,-2.8575,1.,1.,                 139P    242
-1.74838271594513D-16,1.25,-1.25,-0.125,1.25,-1.25,-3.175,           139P    243
-2.8575,0.,0.,0.;                                                    139P    244
126,1,1,0,0,1,0,0.,0.,0.317499999999998,0.317499999999998,1.,1.,     141P    245
-1.25,0.,0.,-1.25,0.124999999999999,0.,0.,0.317499999999998,0.,      141P    246
0.,0.;                                                               141P    247
126,1,1,0,0,1,0,0.,0.,3.175,3.175,1.,1.,0.,0.,0.,-1.25,0.,0.,0.,     143P    248
3.175,0.,0.,0.;                                                      143P    249
126,1,1,0,0,1,0,0.,0.,3.175,3.175,1.,1.,0.,0.,0.,0.,1.25,0.,0.,      145P    250
3.175,0.,0.,0.;                                                      145P    251
126,1,1,0,0,1,0,0.,0.,0.317499999999998,0.317499999999998,1.,1.,     147P    252
-1.25,0.,-1.25,-1.25,0.124999999999999,-1.25,0.,                     147P    253
0.317499999999998,0.,0.,0.;                                          147P    254
126,1,1,0,0,1,0,0.,0.,3.175,3.175,1.,1.,-1.25,0.,0.,-1.25,0.,        149P    255
-1.25,0.,3.175,0.,0.,0.;                                             149P    256
126,1,1,0,0,1,0,0.,0.,3.175,3.175,1.,1.,-1.74838271594513D-16,       151P    257
0.,-1.25,-1.74838271594513D-16,1.25,-1.25,0.,3.175,0.,0.,0.;         151P    258
126,1,1,0,0,1,0,0.,0.,3.175,3.175,1.,1.,-1.25,0.,-1.25,              153P    259
-1.74838271594513D-16,0.,-1.25,0.,3.175,0.,0.,0.;                    153P    260
126,1,1,0,0,1,0,0.,0.,3.175,3.175,1.,1.,-1.74838271594513D-16,       155P    261
0.,-1.25,0.,0.,0.,0.,3.175,0.,0.,0.;                                 155P    262
128,1,8,1,2,0,1,0,0,1,-2.56387503820103D-15,                         157P    263
-2.56387503820103D-15,8.46666666666666,8.46666666666666,             157P    264
-3.14159265358979,-3.14159265358979,-3.14159265358979,               157P    265
-1.5707963267949,-1.5707963267949,0.,0.,1.5707963267949,             157P    266
1.5707963267949,3.14159265358979,3.14159265358979,                   157P    267
3.14159265358979,1.,1.,0.707106781186548,0.707106781186548,1.,       157P    268
1.,0.707106781186548,0.707106781186548,1.,1.,0.707106781186548,      157P    269
0.707106781186548,1.,1.,0.707106781186548,0.707106781186548,1.,      157P    270
1.,1.94109474709895D-32,0.167499999999999,-1.14155511811024,         157P    271
-0.5,0.167499999999999,-1.14155511811024,1.94109474709895D-32,       157P    272
0.108444881889763,-1.14155511811024,-0.5,0.108444881889763,          157P    273
-1.14155511811024,1.94109474709895D-32,0.108444881889763,            157P    274
-1.0825,-0.5,0.108444881889763,-1.0825,1.94109474709895D-32,         157P    275
0.108444881889763,-1.02344488188976,-0.5,0.108444881889763,          157P    276
-1.02344488188976,1.94109474709895D-32,0.167499999999999,            157P    277
-1.02344488188976,-0.5,0.167499999999999,-1.02344488188976,          157P    278
1.94109474709895D-32,0.226555118110236,-1.02344488188976,-0.5,       157P    279
0.226555118110236,-1.02344488188976,1.94109474709895D-32,            157P    280
0.226555118110236,-1.0825,-0.5,0.226555118110236,-1.0825,            157P    281
1.94109474709895D-32,0.226555118110236,-1.14155511811024,-0.5,       157P    282
0.226555118110236,-1.14155511811024,1.94109474709895D-32,            157P    283
0.167499999999999,-1.14155511811024,-0.5,0.167499999999999,          157P    284
-1.14155511811024,-2.56387503820103D-15,8.46666666666666,            157P    285
-3.14159265358979,3.14159265358979;                                  157P    286
128,1,1,1,1,0,0,1,0,0,-0.149999999999999,-0.149999999999999,         159P    287
0.15,0.15,-0.15,-0.15,0.15,0.15,1.,1.,1.,1.,-0.5,                    159P    288
0.108444881889763,-1.02344488188976,-0.5,0.108444881889763,          159P    289
-1.14155511811024,-0.5,0.226555118110236,-1.02344488188976,-0.5,     159P    290
0.226555118110236,-1.14155511811024,-0.149999999999999,0.15,         159P    291
-0.15,0.15;                                                          159P    292
128,1,8,1,2,0,1,0,0,1,9.91799235331803D-17,9.91799235331803D-17,     161P    293
5.953,5.953,-3.14159265358979,-3.14159265358979,                     161P    294
-3.14159265358979,-1.5707963267949,-1.5707963267949,0.,0.,           161P    295
1.5707963267949,1.5707963267949,3.14159265358979,                    161P    296
3.14159265358979,3.14159265358979,1.,1.,0.707106781186548,           161P    297
0.707106781186548,1.,1.,0.707106781186548,0.707106781186548,1.,      161P    298
1.,0.707106781186548,0.707106781186548,1.,1.,0.707106781186548,      161P    299
0.707106781186548,1.,1.,-3.96105052712844D-17,1.0825,                161P    300
-0.226555118110236,-0.351555118110236,1.0825,-0.226555118110236,     161P    301
-3.96105052712844D-17,1.02344488188976,-0.226555118110236,           161P    302
-0.351555118110236,1.02344488188976,-0.226555118110236,              161P    303
-2.92854104920809D-17,1.02344488188976,-0.1675,                      161P    304
-0.351555118110236,1.02344488188976,-0.1675,                         161P    305
-1.89603157128774D-17,1.02344488188976,-0.108444881889764,           161P    306
-0.351555118110236,1.02344488188976,-0.108444881889764,              161P    307
-1.89603157128774D-17,1.0825,-0.108444881889764,                     161P    308
-0.351555118110236,1.0825,-0.108444881889764,                        161P    309
-1.89603157128774D-17,1.14155511811024,-0.108444881889764,           161P    310
-0.351555118110236,1.14155511811024,-0.108444881889764,              161P    311
-2.92854104920809D-17,1.14155511811024,-0.1675,                      161P    312
-0.351555118110236,1.14155511811024,-0.1675,                         161P    313
-3.96105052712844D-17,1.14155511811024,-0.226555118110236,           161P    314
-0.351555118110236,1.14155511811024,-0.226555118110236,              161P    315
-3.96105052712844D-17,1.0825,-0.226555118110236,                     161P    316
-0.351555118110236,1.0825,-0.226555118110236,                        161P    317
9.91799235331803D-17,5.953,-3.14159265358979,3.14159265358979;       161P    318
128,1,8,1,2,0,1,0,0,1,9.91799235331803D-17,9.91799235331803D-17,     163P    319
8.46666666666666,8.46666666666666,-3.14159265358979,                 163P    320
-3.14159265358979,-3.14159265358979,-1.5707963267949,                163P    321
-1.5707963267949,0.,0.,1.5707963267949,1.5707963267949,              163P    322
3.14159265358979,3.14159265358979,3.14159265358979,1.,1.,            163P    323
0.707106781186548,0.707106781186548,1.,1.,0.707106781186548,         163P    324
0.707106781186548,1.,1.,0.707106781186548,0.707106781186548,1.,      163P    325
1.,0.707106781186548,0.707106781186548,1.,1.,                        163P    326
-3.96105052712844D-17,0.1675,-0.226555118110236,-0.5,0.1675,         163P    327
-0.226555118110236,-3.96105052712843D-17,0.108444881889763,          163P    328
-0.226555118110236,-0.5,0.108444881889763,-0.226555118110236,        163P    329
-2.92854104920808D-17,0.108444881889763,-0.1675,-0.5,                163P    330
0.108444881889763,-0.1675,-1.89603157128773D-17,                     163P    331
0.108444881889763,-0.108444881889763,-0.5,0.108444881889763,         163P    332
-0.108444881889763,-1.89603157128773D-17,0.1675,                     163P    333
-0.108444881889763,-0.5,0.1675,-0.108444881889763,                   163P    334
-1.89603157128773D-17,0.226555118110236,-0.108444881889763,-0.5,     163P    335
0.226555118110236,-0.108444881889763,-2.92854104920808D-17,          163P    336
0.226555118110236,-0.1675,-0.5,0.226555118110236,-0.1675,            163P    337
-3.96105052712843D-17,0.226555118110236,-0.226555118110236,-0.5,     163P    338
0.226555118110236,-0.226555118110236,-3.96105052712844D-17,          163P    339
0.1675,-0.226555118110236,-0.5,0.1675,-0.226555118110236,            163P    340
9.91799235331803D-17,8.46666666666666,-3.14159265358979,             163P    341
3.14159265358979;                                                    163P    342
128,1,1,1,1,0,0,1,0,0,-0.15,-0.15,0.15,0.15,-0.15,-0.15,0.15,        165P    343
0.15,1.,1.,1.,1.,-0.5,0.108444881889763,-0.108444881889763,-0.5,     165P    344
0.108444881889763,-0.226555118110236,-0.5,0.226555118110236,         165P    345
-0.108444881889763,-0.5,0.226555118110236,-0.226555118110236,        165P    346
-0.15,0.15,-0.15,0.15;                                               165P    347
128,1,8,1,2,0,1,0,0,1,-2.56387503820103D-15,                         167P    348
-2.56387503820103D-15,5.953,5.953,-3.14159265358979,                 167P    349
-3.14159265358979,-3.14159265358979,-1.5707963267949,                167P    350
-1.5707963267949,0.,0.,1.5707963267949,1.5707963267949,              167P    351
3.14159265358979,3.14159265358979,3.14159265358979,1.,1.,            167P    352
0.707106781186548,0.707106781186548,1.,1.,0.707106781186548,         167P    353
0.707106781186548,1.,1.,0.707106781186548,0.707106781186548,1.,      167P    354
1.,0.707106781186548,0.707106781186548,1.,1.,0.,1.0825,              167P    355
-1.14155511811024,-0.351555118110236,1.0825,-1.14155511811024,       167P    356
0.,1.02344488188976,-1.14155511811024,-0.351555118110236,            167P    357
1.02344488188976,-1.14155511811024,0.,1.02344488188976,-1.0825,      167P    358
-0.351555118110236,1.02344488188976,-1.0825,0.,1.02344488188976,     167P    359
-1.02344488188976,-0.351555118110236,1.02344488188976,               167P    360
-1.02344488188976,0.,1.0825,-1.02344488188976,                       167P    361
-0.351555118110236,1.0825,-1.02344488188976,0.,1.14155511811024,     167P    362
-1.02344488188976,-0.351555118110236,1.14155511811024,               167P    363
-1.02344488188976,0.,1.14155511811024,-1.0825,                       167P    364
-0.351555118110236,1.14155511811024,-1.0825,0.,1.14155511811024,     167P    365
-1.14155511811024,-0.351555118110236,1.14155511811024,               167P    366
-1.14155511811024,0.,1.0825,-1.14155511811024,                       167P    367
-0.351555118110236,1.0825,-1.14155511811024,                         167P    368
-2.56387503820103D-15,5.953,-3.14159265358979,3.14159265358979;      167P    369
128,1,8,1,2,0,1,0,0,1,-5.82794238648376D-17,                         169P    370
-5.82794238648376D-17,6.81818181818182,6.81818181818182,             169P    371
-3.14159265358979,-3.14159265358979,-3.14159265358979,               169P    372
-1.5707963267949,-1.5707963267949,0.,0.,1.5707963267949,             169P    373
1.5707963267949,3.14159265358979,3.14159265358979,                   169P    374
3.14159265358979,1.,1.,0.707106781186548,0.707106781186548,1.,       169P    375
1.,0.707106781186548,0.707106781186548,1.,1.,0.707106781186548,      169P    376
0.707106781186548,1.,1.,0.707106781186548,0.707106781186548,1.,      169P    377
1.,-0.28125,-1.25,-0.625,-0.28125,1.09375,-0.625,-0.28125,-1.25,     169P    378
-0.96875,-0.28125,1.09375,-0.96875,-0.625,-1.25,-0.96875,-0.625,     169P    379
1.09375,-0.96875,-0.96875,-1.25,-0.96875,-0.96875,1.09375,           169P    380
-0.96875,-0.96875,-1.25,-0.625,-0.96875,1.09375,-0.625,-0.96875,     169P    381
-1.25,-0.28125,-0.96875,1.09375,-0.28125,-0.625,-1.25,-0.28125,      169P    382
-0.625,1.09375,-0.28125,-0.28125,-1.25,-0.28125,-0.28125,            169P    383
1.09375,-0.28125,-0.28125,-1.25,-0.625,-0.28125,1.09375,-0.625,      169P    384
-5.82794238648376D-17,6.81818181818182,-3.14159265358979,            169P    385
3.14159265358979;                                                    169P    386
128,1,8,1,2,0,1,0,0,1,-2.00814100200372D-32,                         171P    387
-2.00814100200372D-32,2.86532951289398,2.86532951289398,             171P    388
-3.14159265358979,-3.14159265358979,-3.14159265358979,               171P    389
-1.5707963267949,-1.5707963267949,0.,0.,1.5707963267949,             171P    390
1.5707963267949,3.14159265358979,3.14159265358979,                   171P    391
3.14159265358979,1.,1.,0.707106781186548,0.707106781186548,1.,       171P    392
1.,0.707106781186548,0.707106781186548,1.,1.,0.707106781186548,      171P    393
0.707106781186548,1.,1.,0.707106781186548,0.707106781186548,1.,      171P    394
1.,-0.18875,-1.25,-0.625,-0.18875,2.28819587949319D-17,-0.625,       171P    395
-0.18875,-1.25,-0.18875,-0.18875,2.28819587949319D-17,-0.18875,      171P    396
-0.625,-1.25,-0.18875,-0.625,9.70547373549473D-33,-0.18875,          171P    397
-1.06125,-1.25,-0.18875,-1.06125,-2.28819587949319D-17,-0.18875,     171P    398
-1.06125,-1.25,-0.625,-1.06125,-2.28819587949319D-17,-0.625,         171P    399
-1.06125,-1.25,-1.06125,-1.06125,-2.28819587949319D-17,-1.06125,     171P    400
-0.625,-1.25,-1.06125,-0.625,9.70547373549473D-33,-1.06125,          171P    401
-0.18875,-1.25,-1.06125,-0.18875,2.28819587949319D-17,-1.06125,      171P    402
-0.18875,-1.25,-0.625,-0.18875,2.28819587949319D-17,-0.625,          171P    403
-2.00814100200372D-32,2.86532951289398,-3.14159265358979,            171P    404
3.14159265358979;                                                    171P    405
128,1,1,1,1,0,0,1,0,0,-1.108075,-1.108075,1.108075,1.108075,         173P    406
-1.108075,-1.108075,1.108075,1.108075,1.,1.,1.,1.,-1.06125,          173P    407
-1.25,-0.18875,-1.06125,-1.25,-1.06125,-0.18875,-1.25,-0.18875,      173P    408
-0.18875,-1.25,-1.06125,-1.108075,1.108075,-1.108075,1.108075;       173P    409
128,1,1,1,1,0,0,1,0,0,-8.88178419700125D-16,                         175P    410
-8.88178419700125D-16,4.04111525448112,4.04111525448112,0.,0.,       175P    411
3.175,3.175,1.,1.,1.,1.,-1.25,0.124999999999999,0.,-0.125,1.25,      175P    412
0.,-1.25,0.124999999999999,-1.25,-0.125,1.25,-1.25,                  175P    413
-8.88178419700125D-16,4.04111525448112,0.,3.175;                     175P    414
128,1,1,1,1,0,0,1,0,0,-1.5875,-1.5875,1.5875,1.5875,1.27,1.27,       177P    415
1.5875,1.5875,1.,1.,1.,1.,-0.125,1.25,-1.25,-0.125,1.25,             177P    416
8.74191357972564D-17,0.,1.25,-1.25,0.,1.25,0.,-1.5875,1.5875,        177P    417
1.27,1.5875;                                                         177P    418
128,1,1,1,1,0,0,1,0,0,0.,0.,3.175,3.175,0.,0.,3.175,3.175,1.,1.,     179P    419
1.,1.,-1.25,0.,0.,0.,0.,0.,-1.25,1.25,0.,0.,1.25,0.,0.,3.175,0.,     179P    420
3.175;                                                               179P    421
128,1,1,1,1,0,0,1,0,0,0.,0.,3.175,3.175,0.,0.,0.317499999999999,     181P    422
0.317499999999999,1.,1.,1.,1.,-1.25,0.,-1.25,-1.25,0.,0.,-1.25,      181P    423
0.124999999999999,-1.25,-1.25,0.124999999999999,0.,0.,3.175,0.,      181P    424
0.317499999999999;                                                   181P    425
128,1,1,1,1,0,0,1,0,0,0.,0.,3.175,3.175,0.,0.,3.175,3.175,1.,1.,     183P    426
1.,1.,-1.74838271594513D-16,0.,-1.25,-1.25,0.,-1.25,                 183P    427
-1.74838271594513D-16,1.25,-1.25,-1.25,1.25,-1.25,0.,3.175,0.,       183P    428
3.175;                                                               183P    429
128,1,1,1,1,0,0,1,0,0,0.,0.,3.175,3.175,0.,0.,3.175,3.175,1.,1.,     185P    430
1.,1.,0.,0.,0.,-1.74838271594513D-16,0.,-1.25,0.,1.25,0.,            185P    431
-1.74838271594513D-16,1.25,-1.25,0.,3.175,0.,3.175;                  185P    432
128,1,1,1,1,0,0,1,0,0,-1.5875,-1.5875,1.5875,1.5875,-1.5875,         187P    433
-1.5875,1.5875,1.5875,1.,1.,1.,1.,-1.25,-3.46944695195361D-17,       187P    434
8.08143030453073D-49,-1.25,-3.46944695195361D-17,-1.25,0.,           187P    435
3.46944695195361D-17,-8.08143030453073D-49,0.,                       187P    436
3.46944695195361D-17,-1.25,-1.5875,1.5875,-1.5875,1.5875;            187P    437
502,24,-1.59670019024211D-16,0.167499999999999,                      189P    438
-1.14155511811024,-0.5,0.167499999999999,-1.14155511811024,          189P    439
-3.16884042170275D-17,1.0825,-0.226555118110236,-0.2925,1.0825,      189P    440
-0.226555118110236,-0.351555118110236,1.02344488188976,-0.1675,      189P    441
-3.16884042170275D-17,0.1675,-0.226555118110236,-0.5,0.1675,         189P    442
-0.226555118110236,-1.59670019024211D-16,1.0825,                     189P    443
-1.14155511811024,-0.2925,1.0825,-1.14155511811024,                  189P    444
-0.351555118110236,1.02344488188976,-1.0825,-0.28125,-1.25,          189P    445
-0.625,-0.28125,1.09375,-0.625,-0.18875,-1.25,-0.625,-0.18875,       189P    446
2.42167397246362D-17,-0.625,-1.25,0.124999999999999,-1.25,           189P    447
-0.125,1.25,-1.25,-1.25,0.124999999999999,0.,-0.125,1.25,0.,0.,      189P    448
1.25,0.,-1.74838271594513D-16,1.25,-1.25,-1.25,0.,0.,0.,0.,0.,       189P    449
-1.25,0.,-1.25,-1.74838271594513D-16,0.,-1.25;                       189P    450
504,35,87,189,1,189,1,89,189,1,189,2,91,189,2,189,2,93,189,3,        191P    451
189,3,95,189,3,189,4,97,189,5,189,4,99,189,4,189,5,101,189,6,        191P    452
189,6,103,189,6,189,7,105,189,7,189,7,107,189,8,189,8,109,189,8,     191P    453
189,9,111,189,10,189,9,113,189,9,189,10,115,189,11,189,11,117,       191P    454
189,11,189,12,119,189,12,189,12,121,189,13,189,13,123,189,13,        191P    455
189,14,125,189,14,189,14,127,189,15,189,16,129,189,17,189,15,        191P    456
131,189,18,189,17,133,189,16,189,18,135,189,18,189,19,137,189,       191P    457
19,189,20,139,189,20,189,16,141,189,21,189,17,143,189,22,189,21,     191P    458
145,189,22,189,19,147,189,23,189,15,149,189,21,189,23,151,189,       191P    459
24,189,20,153,189,23,189,24,155,189,24,189,22;                       191P    460
406,1,6HSolid1;                                                      193P    461
314,99.6078431372549,99.6078431372549,100.,;                         195P    462
S      1G      3D    196P    462                                        T      1
