                                                                        S      1
,,,17Hsmallinertiawheel,22HAutodesk Inventor 2016,7Hunknown,32,38,7,99, G      1
15,,1.,1,4HINCH,1,0.08,15H20170616.152011,0.000393700787401575,10000.,4HG      2
Kyle,,11,0,15H20170616.191422;                                          G      3
     186       1                                                00000000D      1
     186             -51       1       0                               0D      2
     514       2                                                00010000D      3
     514                       1       1                               0D      4
     510       3                                                00010000D      5
     510             -51       1       1                               0D      6
     510       4                                                00010000D      7
     510             -51       1       1                               0D      8
     510       5                                                00010000D      9
     510             -51       1       1                               0D     10
     510       6                                                00010000D     11
     510             -51       1       1                               0D     12
     508       7                                                00010000D     13
     508                       1       1                               0D     14
     508       8                                                00010000D     15
     508                       1       1                               0D     16
     508       9                                                00010000D     17
     508                       1       1                               0D     18
     508      10                                                00010000D     19
     508                       1       1                               0D     20
     508      11                                                00010000D     21
     508                       1       1                               0D     22
     508      12                                                00010000D     23
     508                       1       1                               0D     24
     126      13                                                00010000D     25
     126       0              10       0                               0D     26
     126      23                                                00010000D     27
     126       0               2       0                               0D     28
     126      25                                                00010000D     29
     126       0              10       0                               0D     30
     126      35                                                00010000D     31
     126       0              10       0                               0D     32
     126      45                                                00010000D     33
     126       0               2       0                               0D     34
     126      47                                                00010000D     35
     126       0               9       0                               0D     36
     128      56                                                00010000D     37
     128       0     -51      12       0                               0D     38
     128      68                                                00010000D     39
     128       0     -51      12       0                               0D     40
     128      80                                                00010000D     41
     128       0     -51       3       0                               0D     42
     128      83                                                00010000D     43
     128       0     -51       4       0                               0D     44
     502      87                                                00010000D     45
     502                       3       1                               0D     46
     504      90                                                00010001D     47
     504                       2       1                               0D     48
     406      92                                                00000000D     49
     406                       1      15                               0D     50
     314      93                                                00000200D     51
     314                       1       0                               0D     52
186,3,1,0,0,1,49;                                                      1P      1
514,4,5,1,7,1,9,1,11,1;                                                3P      2
510,37,1,1,13;                                                         5P      3
510,39,1,1,15;                                                         7P      4
510,41,2,1,17,19;                                                      9P      5
510,43,2,1,21,23;                                                     11P      6
508,4,0,47,1,0,0,0,47,2,1,0,0,47,3,0,0,0,47,2,0,0;                    13P      7
508,4,0,47,4,0,0,0,47,5,1,0,0,47,6,0,0,0,47,5,0,0;                    15P      8
508,1,0,47,6,1,0;                                                     17P      9
508,1,0,47,1,1,0;                                                     19P     10
508,1,0,47,4,1,0;                                                     21P     11
508,1,0,47,3,1,0;                                                     23P     12
126,8,2,0,1,0,0,-3.14159265358979,-3.14159265358979,                  25P     13
-3.14159265358979,-1.5707963267949,-1.5707963267949,0.,0.,            25P     14
1.5707963267949,1.5707963267949,3.14159265358979,                     25P     15
3.14159265358979,3.14159265358979,1.,0.707106781186548,1.,            25P     16
0.707106781186548,1.,0.707106781186548,1.,0.707106781186548,1.,       25P     17
-0.125,0.,1.53080849893419D-17,-0.125,0.,0.125,                       25P     18
7.65404249467096D-18,0.,0.125,0.125,0.,0.125,0.125,0.,0.,0.125,       25P     19
0.,-0.125,7.65404249467096D-18,0.,-0.125,-0.125,0.,-0.125,            25P     20
-0.125,0.,-1.53080849893419D-17,-3.14159265358979,                    25P     21
3.14159265358979,0.,0.,0.;                                            25P     22
126,1,1,0,0,1,0,0.,0.,3.4,3.4,1.,1.,-0.125,0.,0.,-0.125,0.425,        27P     23
0.,0.,3.4,0.,0.,0.;                                                   27P     24
126,8,2,0,1,0,0,-3.14159265358979,-3.14159265358979,                  29P     25
-3.14159265358979,-1.5707963267949,-1.5707963267949,0.,0.,            29P     26
1.5707963267949,1.5707963267949,3.14159265358979,                     29P     27
3.14159265358979,3.14159265358979,1.,0.707106781186548,1.,            29P     28
0.707106781186548,1.,0.707106781186548,1.,0.707106781186548,1.,       29P     29
-0.125,0.425,-1.53080849893419D-17,-0.125,0.425,-0.125,               29P     30
7.65404249467096D-18,0.425,-0.125,0.125,0.425,-0.125,0.125,           29P     31
0.425,0.,0.125,0.425,0.125,7.65404249467096D-18,0.425,0.125,          29P     32
-0.125,0.425,0.125,-0.125,0.425,1.53080849893419D-17,                 29P     33
-3.14159265358979,3.14159265358979,0.,0.,0.;                          29P     34
126,8,2,0,1,0,0,-3.14159265358979,-3.14159265358979,                  31P     35
-3.14159265358979,-1.5707963267949,-1.5707963267949,0.,0.,            31P     36
1.5707963267949,1.5707963267949,3.14159265358979,                     31P     37
3.14159265358979,3.14159265358979,1.,0.707106781186548,1.,            31P     38
0.707106781186547,1.,0.707106781186547,1.,0.707106781186548,1.,       31P     39
-0.87,0.425,1.0654427152582D-16,-0.87,0.425,0.87,                     31P     40
5.32721357629099D-17,0.425,0.87,0.87,0.425,0.87,0.87,0.425,0.,        31P     41
0.87,0.425,-0.87,5.32721357629099D-17,0.425,-0.87,-0.87,0.425,        31P     42
-0.87,-0.87,0.425,-1.0654427152582D-16,-3.14159265358979,             31P     43
3.14159265358979,0.,0.,0.;                                            31P     44
126,1,1,0,0,1,0,-0.488505747126437,-0.488505747126437,0.,0.,1.,       33P     45
1.,-0.87,0.425,0.,-0.87,0.,0.,-0.488505747126437,0.,0.,0.,0.;         33P     46
126,8,2,0,1,0,0,-3.14159265358979,-3.14159265358979,                  35P     47
-3.14159265358979,-1.5707963267949,-1.5707963267949,0.,0.,            35P     48
1.5707963267949,1.5707963267949,3.14159265358979,                     35P     49
3.14159265358979,3.14159265358979,1.,0.707106781186548,1.,            35P     50
0.707106781186547,1.,0.707106781186547,1.,0.707106781186548,1.,       35P     51
-0.87,0.,-1.0654427152582D-16,-0.87,0.,-0.87,                         35P     52
5.32721357629099D-17,0.,-0.87,0.87,0.,-0.87,0.87,0.,0.,0.87,0.,       35P     53
0.87,5.32721357629099D-17,0.,0.87,-0.87,0.,0.87,-0.87,0.,             35P     54
1.0654427152582D-16,-3.14159265358979,3.14159265358979,0.,0.,0.;      35P     55
128,1,8,1,2,0,1,0,0,1,0.,0.,3.4,3.4,-3.14159265358979,                37P     56
-3.14159265358979,-3.14159265358979,-1.5707963267949,                 37P     57
-1.5707963267949,0.,0.,1.5707963267949,1.5707963267949,               37P     58
3.14159265358979,3.14159265358979,3.14159265358979,1.,1.,             37P     59
0.707106781186548,0.707106781186548,1.,1.,0.707106781186548,          37P     60
0.707106781186548,1.,1.,0.707106781186548,0.707106781186548,1.,       37P     61
1.,0.707106781186548,0.707106781186548,1.,1.,-0.125,0.,0.,            37P     62
-0.125,0.425,0.,-0.125,0.,0.125,-0.125,0.425,0.125,0.,0.,0.125,       37P     63
0.,0.425,0.125,0.125,0.,0.125,0.125,0.425,0.125,0.125,0.,0.,          37P     64
0.125,0.425,0.,0.125,0.,-0.125,0.125,0.425,-0.125,0.,0.,-0.125,       37P     65
0.,0.425,-0.125,-0.125,0.,-0.125,-0.125,0.425,-0.125,-0.125,0.,       37P     66
0.,-0.125,0.425,0.,0.,3.4,-3.14159265358979,3.14159265358979;         37P     67
128,1,8,1,2,0,1,0,0,1,0.,0.,0.488505747126437,0.488505747126437,      39P     68
-3.14159265358979,-3.14159265358979,-3.14159265358979,                39P     69
-1.5707963267949,-1.5707963267949,0.,0.,1.5707963267949,              39P     70
1.5707963267949,3.14159265358979,3.14159265358979,                    39P     71
3.14159265358979,1.,1.,0.707106781186548,0.707106781186548,1.,        39P     72
1.,0.707106781186548,0.707106781186548,1.,1.,0.707106781186548,       39P     73
0.707106781186548,1.,1.,0.707106781186548,0.707106781186548,1.,       39P     74
1.,-0.87,0.425,0.,-0.87,0.,0.,-0.87,0.425,0.87,-0.87,0.,0.87,0.,      39P     75
0.425,0.87,0.,0.,0.87,0.87,0.425,0.87,0.87,0.,0.87,0.87,0.425,        39P     76
0.,0.87,0.,0.,0.87,0.425,-0.87,0.87,0.,-0.87,0.,0.425,-0.87,0.,       39P     77
0.,-0.87,-0.87,0.425,-0.87,-0.87,0.,-0.87,-0.87,0.425,0.,-0.87,       39P     78
0.,0.,0.,0.488505747126437,-3.14159265358979,3.14159265358979;        39P     79
128,1,1,1,1,0,0,1,0,0,-2.2098,-2.2098,2.2098,2.2098,-2.2098,          41P     80
-2.2098,2.2098,2.2098,1.,1.,1.,1.,-0.87,0.,0.87,-0.87,0.,-0.87,       41P     81
0.87,0.,0.87,0.87,0.,-0.87,-2.2098,2.2098,-2.2098,2.2098;             41P     82
128,1,1,1,1,0,0,1,0,0,-2.2098,-2.2098,2.2098,2.2098,-2.2098,          43P     83
-2.2098,2.2098,2.2098,1.,1.,1.,1.,-0.87,0.425,-0.87,-0.87,0.425,      43P     84
0.87,0.87,0.425,-0.87,0.87,0.425,0.87,-2.2098,2.2098,-2.2098,         43P     85
2.2098;                                                               43P     86
502,4,-0.125,0.,1.53080849893419D-17,-0.125,0.425,                    45P     87
1.53080849893419D-17,-0.87,0.425,1.0654427152582D-16,-0.87,0.,        45P     88
1.0654427152582D-16;                                                  45P     89
504,6,25,45,1,45,1,27,45,1,45,2,29,45,2,45,2,31,45,3,45,3,33,45,      47P     90
3,45,4,35,45,4,45,4;                                                  47P     91
406,1,6HSolid1;                                                       49P     92
314,99.6078431372549,99.6078431372549,100.,;                          51P     93
S      1G      3D     52P     93                                        T      1
